<?xml version="1.0" standalone="no"?>
<!DOCTYPE svg PUBLIC "-//W3C//DTD SVG 20010904//EN"
 "http://www.w3.org/TR/2001/REC-SVG-20010904/DTD/svg10.dtd">
<svg version="1.0" xmlns="http://www.w3.org/2000/svg"
 width="488.000000pt" height="227.000000pt" viewBox="0 0 488.000000 227.000000"
 preserveAspectRatio="xMidYMid meet">

<g transform="translate(0.000000,227.000000) scale(0.100000,-0.100000)"
fill="#000000" stroke="none">
<path d="M583 1998 c-4 -7 -10 -332 -13 -723 l-5 -710 -25 -49 c-39 -77 -64
-90 -178 -94 -75 -3 -100 -7 -109 -20 -19 -24 -17 -186 2 -206 21 -21 92 -29
199 -24 240 14 371 137 405 382 7 49 11 323 11 751 0 599 -2 675 -16 689 -20
21 -258 24 -271 4z"/>
<path d="M1475 1690 c-89 -14 -223 -58 -246 -81 -23 -23 -21 -37 25 -124 38
-73 48 -76 153 -40 104 36 233 44 283 18 49 -25 80 -76 80 -129 0 -63 -17 -70
-180 -78 -274 -12 -404 -68 -466 -201 -20 -41 -24 -67 -24 -141 0 -52 6 -112
15 -141 20 -68 88 -143 157 -173 99 -43 286 -37 382 12 22 11 64 43 93 71 29
27 55 48 57 46 2 -2 13 -31 25 -64 13 -33 28 -63 34 -67 14 -9 159 -11 181 -2
14 5 16 51 16 408 0 446 -3 469 -63 548 -71 93 -178 137 -351 143 -61 2 -138
0 -171 -5z m283 -612 c19 -19 14 -127 -7 -173 -53 -117 -235 -163 -318 -80
-28 28 -33 40 -33 80 0 91 48 147 144 171 68 16 198 18 214 2z"/>
</g>
</svg>
